@startuml
set namespaceSeparator ::

class "flutter_unit_ex::main.dart::MyApp" {
  +Widget build()
}

"flutter::src::widgets::framework.dart::StatelessWidget" <|-- "flutter_unit_ex::main.dart::MyApp"

class "flutter_unit_ex::main.dart::MyHomePage" {
  +dynamic title
  +State createState()
}

"flutter::src::widgets::framework.dart::StatefulWidget" <|-- "flutter_unit_ex::main.dart::MyHomePage"

class "flutter_unit_ex::main.dart::_MyHomePageState" {
  -int _counter
  -void _incrementCounter()
  +Widget build()
}

"flutter::src::widgets::framework.dart::State<T>" <|-- "flutter_unit_ex::main.dart::_MyHomePageState"


@enduml